<?xml version="1.0" encoding="utf-8"?>
<!-- Generator: Adobe Illustrator 24.1.2, SVG Export Plug-In . SVG Version: 6.00 Build 0)  -->
<svg version="1.1" id="Ebene_1" xmlns="http://www.w3.org/2000/svg" xmlns:xlink="http://www.w3.org/1999/xlink" x="0px" y="0px"
	 viewBox="0 0 170.4 102.7" style="enable-background:new 0 0 170.4 102.7;" xml:space="preserve">
<style type="text/css">
	.st0{fill:#F5A376;}
	.st1{fill:#949695;}
</style>
<path class="st0" d="M54.1,88.2c-0.1,0.3-0.1,0.7-0.5,1.2s-0.8,0.9-1.6,0.9c-0.9,0-1.6-0.3-2-1.3c-0.3-0.9,0.3-2.3,1.2-2.6
	c0.7-0.3,1.5-0.4,2.2-0.4c2.6,0.2,4.7,2,5.1,4.5c0.2,3.3-2.5,5.8-4.8,6.5c-15.3,4.9-30.1-9.1-26.3-28.9c0.5-2.4,2.1-7.8,5.5-11.6
	c1.7-1.6,3.7-3.1,5.7-4.5c-0.6-0.4-2-1-2-1s-0.8,0.2-1.3,0.4c-6.6,2.3-13.4,4-20.4,4.3c-3.7,0.2-7.3,0.1-10.8-1.3
	c-2.4-1-4.2-2.5-4.3-5.3c-0.1-2.8,1.8-4.4,4.1-5.4c4-1.8,8.3-1.8,12.6-1.2c5.8,0.8,11.2,3,16.3,5.6c0.8,0.4,2.2,1,2.2,1
	s1.5-0.4,2.3-0.8c5.3-2.3,10.1-5.3,14.7-8.6c5-3.6,9.4-7.9,12.9-13c3.3-4.8,5.4-10.1,4.9-16.1c-0.5-5.7-4.2-9.2-9.9-9.2
	c-6,0-11,2.6-15.5,6.4c-2.6,2.2-5.2,5.7-6.4,8.9c0.1,0.6,1.2,3.8,1.2,7.6c0.1,0.6-0.1,1.2-0.3,1.8c-0.4,1.2-1.3,1.7-2.6,1.6
	c-1.2-0.1-1.7-0.6-1.9-2c-0.4-3.2,0.8-6.2,0.6-7c-1.5-4.6-3.8-10-7.3-13.4c-1.1-1.1-2.5-2.1-3.9-2.7c-4.8-2.2-9.7,0-11.7,5
	c-1.9,4.6-1.5,9.2,0.1,13.7c2.7,7.8,8.1,13.4,15.1,17.4c3.1,1.8,6.3,2.7,9.8,2.1c0.1,0,0.3,0,0.4,0c0,0.1,0.1,0.2,0.1,0.3
	c-0.6,0.2-1.1,0.4-1.7,0.5c-2.6,0.2-5.1-0.2-7.4-1.2c-5.1-2.3-9.8-5.3-13.6-9.7c-4.3-5-7.1-10.6-7.4-17.3c-0.1-4.1,0.8-7.9,4-10.7
	c3.5-3.1,7.7-3.3,12.1-2.2c5.8,1.5,9.6,5.5,12.1,10.8c0.3,0.7,0.7,1.4,1.1,2.3c0.5-0.7,0.9-1.3,1.4-1.9c4.7-6.6,11-10.6,19-11.7
	c3.5-0.5,6.9-0.1,10,1.7c5.2,3,6.8,7.7,6.1,13.4c-0.7,5.9-3.3,11-6.9,15.7c-5.2,6.6-12,11.3-19.4,15.2c-2.4,1.2-4.8,2.3-7.2,3.5
	c-0.5,0.2-1,0.5-1.6,0.8c0.6,0.4,1.8,1.1,1.8,1.1s0.7-0.3,1.2-0.5c4.6-1.7,9.3-3.1,14.3-3c3,0.1,5.9,0.7,8.4,2.4
	c0.2,0.1,0.4,0.2,0.5,0.4c1,0.8,1.9,1.7,1.7,3.2c-0.2,1.4-1.3,2.1-2.5,2.6c-3,1.1-6,1-9.1,0.6c-4.5-0.6-8.9-2-13.1-3.6
	c-0.2-0.1-0.8-0.4-0.8-0.4s-0.4,0.2-0.5,0.3c-4.5,2.7-8,6.8-9.8,11.9c-1.1,3.1-1.6,5-1.4,9.8c0.2,4.5,1.4,11,5.9,15.5
	c5.1,5.1,11.7,7.1,17.8,4.9C57.3,93.8,57.3,88.9,54.1,88.2z M33.5,49.7c-0.8-0.4-1.2-0.6-1.5-0.8c-2.7-1.2-5.1-2.4-7.8-3.5
	c-3.9-1.6-7.9-2.6-12.1-2.4c-3,0.1-5.8,0.8-8,2.9c-2.2,2.1-1.9,4.9,0.6,6.6c2,1.3,4.2,1.6,6.5,1.6c4.7,0.1,9.3-0.8,13.8-2
	C27.7,51.5,30.5,50.6,33.5,49.7z M42.6,52.3c0,0.1,1.2,0.7,1.6,0.8c4.7,2,9.5,3.2,14.7,3.1c1.2,0,2.5-0.2,3.6-0.6
	c2.2-0.8,2.5-2.7,0.8-4.3c-1.2-1.1-2.7-1.7-4.4-2c-4.1-0.8-8.1,0.1-12,1.3C45.5,51,43.8,51.6,42.6,52.3z"/>
<g>
	<path class="st0" d="M110,93.2c-1.6-0.1-3.2-1.2-3.7-2.5c-0.5-1.1-0.5-2.2-0.5-3.6c0-1.3,0.2-2.6,0.5-4c0.3-1.4,0.6-2.7,1-4
		c0.7-2.2,1.1-4,1.1-5.2c0-1.2-0.4-1.8-1.1-1.8c-1,0-2.3,1-4,3c-1.7,2-3.3,4.5-4.6,7.6c-0.2,0.4-0.4,0.6-0.8,0.6
		c-0.2,0-0.4-0.1-0.6-0.2c-0.2-0.2-0.3-0.4-0.3-0.6c0-2.5,0.5-5.6,1.6-9.5c0.8-3.4,1.2-5.9,1.2-7.7c0-1.6-0.4-2.3-1.2-2.3
		c-2.1,0-4.3,2.2-6.7,6.5c-2.4,4.3-3.9,8.7-4.7,13c0,0.6-0.3,0.9-0.9,0.9c-1,0-1.6-3.4-1.6-10.3c0-2.8,0.1-5.6,0.4-8.1
		c0.1-0.8,0.6-1.2,1.3-1.2c0.8,0,1.3,0.4,1.3,1.3c0,6.8-0.1,10.9-0.3,12.4c0.5-1.9,1.3-4.1,2.4-6.5c1.1-2.5,2.4-4.7,4-6.6
		c1.6-1.9,3.3-2.9,5.2-2.9c2.1,0,3.2,1.7,3.2,5.1c0,2.9-0.6,6.5-1.9,10.8c0.9-1.6,2-3.1,3.2-4.5c1.2-1.4,2.6-2.1,4.3-2.1
		c1.1,0,1.9,0.4,2.2,1.1s0.6,1.7,0.6,2.8c0,2.1-0.4,4.6-1.1,7.3c-0.7,2.7-1.1,4.9-1.1,6.6c0,1.4,0.6,3.1,2.1,3.2
		c1,0.1,2.2-0.5,3.1-2.4c1-1.9,1.3-3.1,1.8-4.3c0.1-0.3,0.3-0.4,0.5-0.4c0.1,0,0.1,0,0.2,0.1c0.1,0.1,0.1,0.2,0.1,0.3
		c0,0.1,0,0.2,0,0.2c-0.6,2.1-0.8,2.6-1.7,4.7C113.5,92.3,111.9,93.3,110,93.2z"/>
</g>
<g>
	<g>
		<path class="st1" d="M38.3,64.7v-0.8c0-0.2,0.1-0.3,0.4-0.3H48v0.8c0,0.1,0,0.2-0.1,0.2c-0.1,0.1-0.2,0.1-0.3,0.1H38.3z
			 M42.5,82.8V63.9c0.1-0.1,0.2-0.2,0.3-0.2h0.6c0.2,0,0.3,0.1,0.4,0.2v18.5c0,0.1,0,0.2-0.1,0.2s-0.1,0.1-0.3,0.1
			C43.2,82.8,42.9,82.8,42.5,82.8z"/>
		<path class="st1" d="M49.8,82.8v-19c0.1-0.2,0.2-0.3,0.3-0.3h0.6c0.2,0,0.3,0.1,0.3,0.3v18.6c0,0.1,0,0.2-0.1,0.2
			s-0.1,0.1-0.3,0.1C50.5,82.8,50.2,82.8,49.8,82.8z M50.4,74.6c-0.3,0-0.4,0-0.3-0.1c0-0.1,0-0.2,0-0.3V64c0-0.1,0-0.2,0-0.3
			s0.1-0.2,0.2-0.2h2.8c1.2,0,2.1,0.2,2.8,0.7c0.7,0.4,1.2,1.1,1.5,1.8c0.3,0.8,0.5,1.7,0.5,2.7s-0.1,1.9-0.3,2.6s-0.6,1.3-1,1.8
			c-0.4,0.5-0.9,0.8-1.5,1.1c-0.6,0.2-1.3,0.4-2,0.4L50.4,74.6L50.4,74.6z M50.9,73.4H53c0.8,0,1.5-0.2,2-0.6s0.9-0.9,1.1-1.6
			c0.3-0.7,0.4-1.6,0.4-2.6c0-0.7-0.1-1.4-0.3-2c-0.2-0.6-0.5-1.1-1-1.4s-1.2-0.5-2-0.5h-2.2V73.4z M57.1,82.9c-0.1,0-0.2,0-0.3,0
			s-0.3,0-0.4,0c-0.2-1.5-0.4-2.9-0.7-3.9c-0.3-1.1-0.7-2-1-2.7s-0.8-1.3-1.2-1.9c-0.1-0.2,0-0.3,0.1-0.4l0.6-0.3
			c0.2,0,0.3,0.1,0.3,0.2c0.6,0.7,1.1,1.5,1.4,2.2c0.4,0.7,0.8,1.6,1.1,2.7c0.3,1.1,0.6,2.3,0.7,3.8c0,0.1,0,0.2-0.1,0.3
			C57.5,82.8,57.4,82.8,57.1,82.9z"/>
		<path class="st1" d="M59.7,82.9c-0.1,0-0.2,0-0.3,0s-0.3,0-0.4,0l5.3-19.2c0-0.1,0.2-0.2,0.4-0.2c0.1,0,0.2,0,0.3,0s0.2,0,0.2,0
			l5.3,19c0,0.1,0,0.2,0,0.3c-0.1,0.1-0.2,0.1-0.5,0.1c-0.1,0-0.2,0-0.3,0c-0.1,0-0.3,0-0.4,0l-3.2-12.2c-0.2-0.8-0.4-1.5-0.6-2.2
			c-0.2-0.7-0.3-1.4-0.5-1.9s-0.2-1-0.2-1.3c0,0.3-0.1,0.7-0.2,1.3s-0.3,1.2-0.4,1.9c-0.2,0.7-0.4,1.5-0.6,2.2l-3.1,11.9
			c0,0.1-0.1,0.2-0.2,0.2C60,82.8,59.9,82.9,59.7,82.9z M61.4,77.3v-1.2h7v1.2H61.4z"/>
		<path class="st1" d="M77.3,83.1c-1.1,0-2-0.2-2.7-0.5s-1.2-0.8-1.5-1.4c-0.3-0.6-0.6-1.3-0.7-2s-0.2-1.6-0.2-2.4V63.9
			c0-0.1,0-0.2,0.1-0.3c0-0.1,0.1-0.1,0.3-0.1c0.2,0,0.5,0,0.9,0v13.3c0,0.7,0,1.3,0.1,1.9c0.1,0.6,0.2,1.2,0.5,1.6
			c0.3,0.5,0.6,0.9,1.1,1.1s1.2,0.4,2,0.4c0.7,0,1.3-0.1,2-0.2s1.1-0.3,1.4-0.4V63.9c0-0.1,0-0.2,0.1-0.2s0.2-0.1,0.3-0.1
			s0.5,0,0.9,0v18.6c-0.4,0.2-1,0.5-1.9,0.6C79.2,83,78.3,83.1,77.3,83.1z"/>
	</g>
</g>
<g>
	<g>
		<path class="st0" d="M118.2,83.1c-0.9,0-1.6-0.2-2.3-0.5s-1.1-0.9-1.6-1.6s-0.7-1.8-0.9-3.1s-0.3-2.9-0.3-4.8
			c0-2.4,0.2-4.3,0.6-5.7c0.4-1.4,1-2.5,1.8-3.1c0.8-0.6,1.8-1,3-1c0.9,0,1.6,0.2,2.3,0.5c0.6,0.3,1.1,0.9,1.5,1.6s0.7,1.8,0.8,3
			c0.2,1.2,0.3,2.8,0.3,4.6c0,2.5-0.2,4.4-0.5,5.9c-0.4,1.5-0.9,2.5-1.7,3.2S119.4,83.1,118.2,83.1z M118.2,81.8
			c0.9,0,1.6-0.3,2.2-0.9c0.6-0.6,1-1.5,1.2-2.8s0.4-3,0.4-5.2c0-2.1-0.1-3.8-0.4-5c-0.2-1.2-0.6-2.1-1.1-2.7
			c-0.5-0.5-1.2-0.8-2.1-0.8c-0.9,0-1.6,0.3-2.2,0.8c-0.6,0.6-1,1.5-1.3,2.8c-0.3,1.3-0.4,3.1-0.4,5.3c0,2,0.1,3.7,0.4,4.9
			s0.6,2.1,1.2,2.7C116.6,81.6,117.4,81.8,118.2,81.8z"/>
		<path class="st0" d="M126.2,82.8v-19c0-0.1,0-0.2,0.1-0.3c0.1-0.1,0.1-0.1,0.2-0.1h0.8l0.1,1.5l-0.2,1.3c0,0.6,0,1.2,0,1.8
			s0,1.1,0,1.7s0,1.2,0.1,1.8c0,0.6,0,1.1,0,1.6s0,0.8,0,0.9l0,8.3c0,0.1,0,0.2-0.1,0.2c-0.1,0.1-0.2,0.1-0.3,0.1
			C126.8,82.8,126.5,82.8,126.2,82.8z M131,79l-1.6-5.1c0-0.1-0.1-0.3-0.2-0.7s-0.3-0.9-0.5-1.6s-0.4-1.3-0.6-2
			c-0.2-0.7-0.4-1.3-0.6-1.9c-0.2-0.6-0.4-1.3-0.6-2.1l0.5-2.1l3.1,10.2c0,0.1,0.1,0.3,0.2,0.7s0.2,0.8,0.3,1.2
			c0.1,0.4,0.3,0.9,0.5,1.5c0.2-0.6,0.3-1.1,0.4-1.5s0.2-0.8,0.3-1.1s0.2-0.6,0.2-0.7l3.1-9.9l0.5,1.9c-0.2,0.8-0.4,1.4-0.6,2
			c-0.2,0.6-0.4,1.2-0.6,1.9s-0.4,1.3-0.6,1.9c-0.2,0.6-0.3,1.1-0.5,1.5s-0.2,0.7-0.2,0.7l-1.6,4.8c-0.1,0.2-0.2,0.2-0.3,0.2L131,79
			L131,79z M135.5,82.8l0.1-8.4c0-0.2,0-0.5,0-1s0-1,0-1.7c0-0.6,0-1.3,0-1.9s0-1.3,0-1.9c0-0.6,0-1.2,0.1-1.9l-0.2-0.4v-1.8
			c0,0,0-0.1,0.1-0.2c0-0.1,0.1-0.1,0.2-0.1c0.3,0,0.5,0,0.7,0s0.2,0,0.2,0v19c0,0.1,0,0.2-0.1,0.2c0,0.1-0.1,0.1-0.3,0.1
			C136.2,82.8,135.9,82.8,135.5,82.8z"/>
		<path class="st0" d="M140.1,82.8v-19c0.1-0.2,0.2-0.3,0.4-0.3h6.6c0,0.3,0,0.6,0,0.7s0,0.3-0.1,0.3c0,0.1-0.1,0.1-0.2,0.1h-5.5v17
			h5.7c0,0.4,0,0.6,0,0.8c0,0.2-0.1,0.3-0.1,0.3c0,0.1-0.1,0.1-0.2,0.1L140.1,82.8L140.1,82.8z M140.4,72.9v-1.2h6
			c0,0.5,0,0.8,0,0.9s-0.1,0.2-0.2,0.2H140.4z"/>
		<path class="st0" d="M149.5,82.8v-19c0-0.2,0.1-0.3,0.3-0.3l0.9,0.3l-0.1,1.6c0,0.1,0,0.4,0,0.9s0,1.1,0,1.9s0,1.5,0,2.4
			c0,0.8,0,1.6,0,2.4c0,0.7,0,1.4,0,1.9s0,0.8,0,0.9v6.8c0,0.1,0,0.2-0.1,0.2c0,0.1-0.1,0.1-0.3,0.1
			C150.1,82.8,149.9,82.8,149.5,82.8z M157.7,82.8l-3.4-7.8c0-0.1-0.2-0.4-0.4-0.9c-0.2-0.5-0.5-1.2-0.8-1.9s-0.6-1.5-1-2.3
			c-0.3-0.8-0.7-1.6-0.9-2.3s-0.6-1.5-1-2.4l-0.6-0.8l0.2-0.8h0.9l3.4,7.7c0,0.1,0.2,0.4,0.4,0.9s0.5,1.1,0.8,1.9s0.6,1.5,0.9,2.3
			s0.6,1.5,0.9,2.2c0.3,0.7,0.6,1.5,1,2.3l0.7,1.2l-0.2,0.8L157.7,82.8L157.7,82.8z M158.6,82.8l-0.9-0.3l0.1-1.9c0-0.1,0-0.4,0-0.9
			c0-0.5,0-1.1,0-1.9s0-1.5,0-2.3c0-0.8,0-1.6,0-2.3c0-0.8,0-1.4,0-1.9s0-0.8,0-0.8v-6.6c0-0.1,0-0.2,0-0.2c0-0.1,0.1-0.1,0.3-0.1
			s0.5,0,0.9,0v19C158.9,82.7,158.8,82.8,158.6,82.8z"/>
		<path class="st0" d="M160.7,64.7v-0.8c0-0.2,0.1-0.3,0.4-0.3h9.4v0.8c0,0.1,0,0.2-0.1,0.2c-0.1,0.1-0.1,0.1-0.3,0.1H160.7z
			 M164.9,82.8V63.9c0.1-0.1,0.2-0.2,0.3-0.2h0.6c0.2,0,0.3,0.1,0.4,0.2v18.5c0,0.1,0,0.2-0.1,0.2c0,0.1-0.1,0.1-0.3,0.1
			C165.6,82.8,165.3,82.8,164.9,82.8z"/>
	</g>
</g>
</svg>
